<?xml version="1.0" ?><svg viewBox="0 0 500 500" xmlns="http://www.w3.org/2000/svg"><defs><style>.cls-1{fill:#1e1e1e;}.cls-1,.cls-10,.cls-11,.cls-14,.cls-2,.cls-4,.cls-5,.cls-6,.cls-7,.cls-8,.cls-9{stroke:#000;stroke-miterlimit:10;}.cls-1,.cls-10,.cls-14,.cls-2,.cls-6,.cls-7,.cls-8,.cls-9{stroke-width:5px;}.cls-12,.cls-2{fill:#fff;}.cls-3{opacity:0.1;}.cls-4{fill:#595757;}.cls-11,.cls-4,.cls-5{stroke-width:2.5px;}.cls-5{fill:#3e3a39;}.cls-6{fill:#2d2b2b;}.cls-7{fill:#f7d500;}.cls-8{fill:#c21f1b;}.cls-9{fill:#479d23;}.cls-10{fill:#0081c8;}.cls-11,.cls-14{fill:none;}.cls-13{fill:#231815;}</style></defs><title/><g data-name="图层 1" id="图层_1"><path class="cls-1" d="M351,172.4a9.93,9.93,0,0,0-5.68-5.53l-32.55-12.31a20.42,20.42,0,0,0-16.71,1L287.68,160H212.32L204,155.58a20.42,20.42,0,0,0-16.71-1l-32.55,12.31A9.93,9.93,0,0,0,149,172.4l-2.53,6.19v34.35h207V178.6Z"/><path class="cls-2" d="M360.11,184.52a11.25,11.25,0,0,0-6.63-5.92l-38.33-12.83a15.56,15.56,0,0,0-16.66,4.52l-19.94,22.85a6.56,6.56,0,0,1-4.94,2.25H226.39a6.56,6.56,0,0,1-4.94-2.25L201.5,170.29a15.56,15.56,0,0,0-16.66-4.52L146.51,178.6a11.25,11.25,0,0,0-6.62,5.92c-11.67,25-66.2,148.77-9.9,162a10.22,10.22,0,0,0,9.54-2.75l40.54-40.54a18.82,18.82,0,0,1,13.31-5.51H306.62a18.82,18.82,0,0,1,13.31,5.51l40.54,40.54a10.22,10.22,0,0,0,9.54,2.75C426.32,333.28,371.79,209.55,360.11,184.52Z"/><circle class="cls-2" cx="230.1" cy="211.49" r="6.65"/><circle class="cls-2" cx="269.9" cy="211.49" r="6.65"/><circle class="cls-3" cx="177.02" cy="211.65" r="27.15"/><circle class="cls-3" cx="289.05" cy="256.19" r="27.15"/><circle class="cls-1" cx="177.02" cy="211.65" r="22.23"/><circle class="cls-3" cx="213.12" cy="258.93" r="24.01"/><circle class="cls-4" cx="177.02" cy="211.65" r="15.58"/><circle class="cls-5" cx="177.02" cy="211.65" r="9.09"/><circle class="cls-1" cx="289.05" cy="256.19" r="22.23"/><circle class="cls-4" cx="289.05" cy="256.19" r="15.58"/><circle class="cls-5" cx="289.05" cy="256.19" r="9.09"/><path class="cls-6" d="M226.05,252.87h-6.87V246a6.06,6.06,0,0,0-12.12,0v6.87h-6.87a6.06,6.06,0,0,0,0,12.12h6.87v6.87a6.06,6.06,0,0,0,12.12,0V265h6.87a6.06,6.06,0,1,0,0-12.12Z"/><rect class="cls-7" height="19.6" rx="9.8" ry="9.8" width="19.6" x="313.17" y="181.67"/><rect class="cls-8" height="19.6" rx="9.8" ry="9.8" transform="translate(554.8 -131.5) rotate(90)" width="19.6" x="333.35" y="201.85"/><rect class="cls-9" height="19.6" rx="9.8" ry="9.8" transform="translate(645.95 463.66) rotate(180)" width="19.6" x="313.17" y="222.03"/><rect class="cls-10" height="19.6" rx="9.8" ry="9.8" transform="translate(91.15 514.45) rotate(-90)" width="19.6" x="293" y="201.85"/><line class="cls-11" x1="212.32" x2="204.81" y1="159.96" y2="174.08"/><line class="cls-11" x1="287.68" x2="295.19" y1="159.96" y2="174.08"/><circle class="cls-12" cx="250.08" cy="177.46" r="11.18"/><path class="cls-13" d="M253.52,170.49,243.11,180.9c-2.28,2.28,1.26,5.81,3.54,3.54L257.06,174c2.28-2.28-1.26-5.81-3.54-3.54Z"/><path class="cls-13" d="M257.06,180.9l-10.41-10.41c-2.28-2.28-5.81,1.26-3.54,3.54l10.41,10.41c2.28,2.28,5.81-1.26,3.54-3.54Z"/><circle class="cls-14" cx="250.08" cy="177.46" r="13.01"/></g></svg>